# xmcd CD database file
#
# Track frame offsets:
#	150
#	18256
#	45621
#	62618
#	81304
#	106853
#	133194
#	154903
#	176659
#
# Disc length: 2723 seconds
#
# Revision: 0
# Processed by: cddbd v1.5.2PL0 Copyright (c) Steve Scherf et al.
# Submitted via: CDex 1.51
#
DISCID=700aa109
DTITLE=Booker T. Jones - Live 2011 Tiny Desk Concert 2012 On Mountain Stage
DYEAR=2012
DGENRE=Blues
TTITLE0=Booker T. Jones - Green Onions
TTITLE1=Booker T. Jones - Born Under A Bad Sign
TTITLE2=Booker T. Jones - Down In Memphis
TTITLE3=Booker T. Jones - Walking Papers
TTITLE4=Booker T. Jones - Born Under A Bad Sign
TTITLE5=Booker T. Jones - Green Onions
TTITLE6=Booker T. Jones - Oh Pretty Woman
TTITLE7=Booker T. Jones - Knockin' On Heaven's Door
TTITLE8=Booker T. Jones - Hang 'Em High
EXTD=YEAR: 2012
EXTT0=
EXTT1=
EXTT2=
EXTT3=
EXTT4=
EXTT5=
EXTT6=
EXTT7=
EXTT8=
PLAYORDER=
